<?xml version="1.0" encoding="UTF-8" standalone="no"?>
<!-- Created with Inkscape (http://www.inkscape.org/) -->

<svg
   width="210mm"
   height="297mm"
   viewBox="0 0 210 297"
   version="1.1"
   id="svg1"
   inkscape:version="1.4 (1:1.4+202410161351+e7c3feb100)"
   sodipodi:docname="fplot.svg"
   xmlns:inkscape="http://www.inkscape.org/namespaces/inkscape"
   xmlns:sodipodi="http://sodipodi.sourceforge.net/DTD/sodipodi-0.dtd"
   xmlns="http://www.w3.org/2000/svg"
   xmlns:svg="http://www.w3.org/2000/svg">
  <sodipodi:namedview
     id="namedview1"
     pagecolor="#ffffff"
     bordercolor="#000000"
     borderopacity="0.25"
     inkscape:showpageshadow="2"
     inkscape:pageopacity="0.0"
     inkscape:pagecheckerboard="0"
     inkscape:deskcolor="#d1d1d1"
     inkscape:document-units="mm"
     inkscape:zoom="2"
     inkscape:cx="287.5"
     inkscape:cy="620"
     inkscape:window-width="2560"
     inkscape:window-height="1408"
     inkscape:window-x="1920"
     inkscape:window-y="0"
     inkscape:window-maximized="1"
     inkscape:current-layer="layer1"
     showgrid="false" />
  <defs
     id="defs1">
    <inkscape:path-effect
       effect="offset"
       id="path-effect14"
       is_visible="true"
       lpeversion="1.2"
       linejoin_type="miter"
       unit="mm"
       offset="0.3"
       miter_limit="4"
       attempt_force_join="false"
       update_on_knot_move="true" />
    <marker
       style="overflow:visible"
       id="ConcaveTriangle"
       refX="0"
       refY="0"
       orient="auto-start-reverse"
       inkscape:stockid="Concave triangle arrow"
       markerWidth="1"
       markerHeight="1"
       viewBox="0 0 1 1"
       inkscape:isstock="true"
       inkscape:collect="always"
       preserveAspectRatio="xMidYMid">
      <path
         transform="scale(0.7)"
         d="M -2,-4 9,0 -2,4 c 2,-2.33 2,-5.66 0,-8 z"
         style="fill:context-stroke;fill-rule:evenodd;stroke:none"
         id="path7" />
    </marker>
  </defs>
  <g
     inkscape:label="Layer 1"
     inkscape:groupmode="layer"
     id="layer1">
    <rect
       style="opacity:1;fill:#006680;stroke:#000000;stroke-width:0.75;stroke-linejoin:round;paint-order:fill markers stroke"
       id="rect18"
       width="37.478924"
       height="37.478924"
       x="75.17627"
       y="147.38713"
       rx="4.9217234"
       ry="4.9217234" />
    <rect
       style="opacity:1;fill:#80b3ff;stroke:#000000;stroke-width:0.75;stroke-linejoin:round;paint-order:fill markers stroke"
       id="rect6"
       width="37.478924"
       height="37.478924"
       x="28.529594"
       y="147.38713"
       rx="4.9217234"
       ry="4.9217234" />
    <path
       id="path2"
       style="font-weight:bold;font-size:22.5778px;line-height:0;font-family:'Liberation Mono';-inkscape-font-specification:'Liberation Mono Bold';letter-spacing:0.608542px;opacity:0.998763;stroke-width:1.5;stroke-linejoin:round;paint-order:fill markers stroke"
       d="m 46.892628,246.76627 v 14.87144 h 3.252 v -5.24722 h 3.65965 c 1.18328,0 2.19752,-0.20247 3.04271,-0.60669 0.85255,-0.40422 1.50298,-0.97748 1.9513,-1.71979 0.44832,-0.74965 0.67231,-1.61655 0.67231,-2.60139 0,-1.53605 -0.49609,-2.70113 -1.48828,-3.49488 -0.98484,-0.8011 -2.4215,-1.20147 -4.31033,-1.20147 z m 3.252,2.52439 h 3.16356 c 0.96278,0 1.68287,0.17288 2.16059,0.51831 0.48507,0.33808 0.7276,0.90732 0.7276,1.70843 0,0.77904 -0.22399,1.37086 -0.67231,1.77508 -0.44832,0.39688 -1.15789,0.59532 -2.12803,0.59532 h -3.25141 z"
       sodipodi:nodetypes="ccccsccscsccscscscc" />
    <path
       style="opacity:0.291965;fill:none;stroke:#000000;stroke-width:1.5;stroke-linejoin:round;marker-end:url(#ConcaveTriangle);paint-order:fill markers stroke"
       d="m 11.962791,62.127475 15.29303,17.87226 19.493888,-36.85044 c 0,0 20.120057,46.07578 21.574048,44.13034 1.453992,-1.94544 39.019593,-69.68747 39.019593,-69.68747"
       id="path1" />
    <text
       xml:space="preserve"
       style="font-weight:bold;font-size:22.5778px;line-height:0;font-family:'Liberation Mono';-inkscape-font-specification:'Liberation Mono Bold';letter-spacing:0.608542px;opacity:0.291965;fill:#000000;stroke:none;stroke-width:1.5;stroke-linejoin:round;paint-order:fill markers stroke"
       x="36.115349"
       y="227.89355"
       id="text1"><tspan
         sodipodi:role="line"
         id="tspan1"
         style="stroke-width:1.5;stroke:none;fill:#000000"
         x="36.115349"
         y="227.89355">FP</tspan></text>
    <path
       style="font-weight:bold;font-size:22.5778px;line-height:0;font-family:'Liberation Mono';-inkscape-font-specification:'Liberation Mono Bold';letter-spacing:0.608542px;opacity:0.998763;stroke-width:1.5;stroke-linejoin:round;paint-order:fill markers stroke"
       d="m 29.736836,249.2797 v 4.23334 h 6.846101 v 2.51354 h -6.846101 v 5.61138 h -3.252173 v -14.87181 h 10.351833 v 2.51355 z"
       id="text2" />
    <path
       id="path3"
       style="font-weight:bold;font-size:22.5778px;line-height:0;font-family:'Liberation Mono';-inkscape-font-specification:'Liberation Mono Bold';letter-spacing:0.608542px;opacity:1;fill:#ff2a2a;stroke-width:1.5;stroke-linejoin:round;paint-order:fill markers stroke"
       d="m 46.892378,246.76627 v 14.87144 h 3.252 v -5.24722 h 3.65972 c 0.04154,0 0.08136,-0.002 0.12248,-0.003 v -2.52491 c -0.16808,0.0148 -0.34316,0.0248 -0.53072,0.0248 h -3.25148 v -4.59714 h 3.16363 c 0.21922,0 0.42451,0.0105 0.61857,0.0284 v -2.5461 c -0.08558,-0.002 -0.16725,-0.007 -0.25477,-0.007 z" />
    <path
       id="path4"
       style="font-weight:bold;font-size:22.5778px;line-height:0;font-family:'Liberation Mono';-inkscape-font-specification:'Liberation Mono Bold';letter-spacing:0.608542px;opacity:0.998763;fill:#005544;stroke-width:2.8738;stroke-linejoin:round;paint-order:fill markers stroke"
       d="m 36.52502,153.182 v 28.49171 h 6.230405 v -10.05298 h 7.0114 c 2.26701,0 4.21016,-0.3879 5.82943,-1.16234 1.63338,-0.77443 2.87951,-1.87272 3.73844,-3.29489 0.85892,-1.43623 1.28805,-3.09709 1.28805,-4.98392 0,-2.94287 -0.95044,-5.175 -2.85134,-6.69572 -1.88683,-1.53481 -4.63928,-2.30186 -8.25803,-2.30186 z m 6.230405,4.8364 h 6.06096 c 1.84456,0 3.22416,0.33121 4.13941,0.99301 0.92933,0.64772 1.39398,1.7383 1.39398,3.27312 0,1.49254 -0.42913,2.62639 -1.28806,3.40082 -0.85892,0.76037 -2.21836,1.14056 -4.07702,1.14056 h -6.22927 z"
       sodipodi:nodetypes="ccccsccscsccscscscc" />
    <path
       id="path5"
       style="font-weight:bold;font-size:22.5778px;line-height:0;font-family:'Liberation Mono';-inkscape-font-specification:'Liberation Mono Bold';letter-spacing:0.608542px;opacity:1;fill:#ff2a2a;stroke-width:2.8738;stroke-linejoin:round;paint-order:fill markers stroke"
       d="m 36.524541,153.182 v 28.49171 h 6.230404 v -10.05298 h 7.01154 c 0.0795,0 0.15595,-0.004 0.23465,-0.006 v -4.83739 c -0.32202,0.0283 -0.65745,0.0475 -1.01679,0.0475 h -6.2294 v -8.80751 h 6.0611 c 0.41999,0 0.8133,0.0201 1.18509,0.0544 v -4.87799 c -0.16399,-0.004 -0.32042,-0.0134 -0.4881,-0.0134 z" />
    <path
       style="opacity:1;fill:none;stroke:#ffcc00;stroke-width:0.75;stroke-linejoin:round;marker-end:url(#ConcaveTriangle);paint-order:fill markers stroke"
       d="m 29.985229,172.15964 5.108747,7.24873 6.512079,-14.94603 c 0,0 6.72125,18.68767 7.20697,17.89862 0.48571,-0.78901 13.03478,-28.26421 13.03478,-28.26421"
       id="path6" />
    <path
       id="path8"
       style="font-weight:bold;font-size:22.5778px;line-height:0;font-family:'Liberation Mono';-inkscape-font-specification:'Liberation Mono Bold';letter-spacing:0.608542px;opacity:0.998763;fill:#5fd38d;stroke-width:2.8738;stroke-linejoin:round;paint-order:fill markers stroke"
       d="m 83.847885,153.18206 v 21.56871 l 4.5806,-10.51047 c 0.24504,-0.56437 1.04897,-0.53905 1.25574,0.0408 0.27661,0.76854 0.21155,0.58339 0.39377,1.08934 v -7.35201 h 6.06113 c 1.84456,0 3.22404,0.33091 4.139285,0.99271 0.92933,0.64772 1.39423,1.73836 1.39423,3.27318 0,1.49254 -0.42937,2.6264 -1.2883,3.40083 -0.858915,0.76037 -2.218085,1.1405 -4.076745,1.1405 h -5.70353 c 0.50044,1.38136 0.58084,1.58242 1.47485,3.97495 0.09977,0.267 0.20727,0.54802 0.30954,0.8201 h 4.701 c 1.32059,0 2.52793,-0.13595 3.628715,-0.39894 0.56717,-1.23359 1.04006,-2.2541 1.62213,-3.52226 2.31101,-5.03497 2.93428,-6.40167 4.58938,-10.02265 -0.45767,-0.84629 -1.06777,-1.57892 -1.83555,-2.19315 -1.88683,-1.5348 -4.63914,-2.30166 -8.257885,-2.30166 z m 23.765995,6.24561 c -0.97665,2.13544 -2.00781,4.3963 -4.04472,8.83409 -0.39563,0.86196 -0.71194,1.54294 -1.10381,2.3952 0.15297,-0.0642 0.30614,-0.12785 0.45372,-0.19844 1.63338,-0.77443 2.87935,-1.87272 3.73827,-3.29489 0.85892,-1.43623 1.2883,-3.09736 1.2883,-4.98419 0,-1.00001 -0.11227,-1.91593 -0.33176,-2.75177 z m -18.619015,6.8926 -5.14698,11.81375 v 3.53984 h 6.23011 v -10.05314 h 0.87127 c -0.8916,-2.38503 -1.6245,-4.38616 -1.9544,-5.30045 z" />
    <path
       id="path9"
       style="font-weight:bold;font-size:22.5778px;line-height:0;font-family:'Liberation Mono';-inkscape-font-specification:'Liberation Mono Bold';letter-spacing:0.608542px;opacity:1;fill:#ffffff;stroke-width:2.8738;stroke-linejoin:round;paint-order:fill markers stroke"
       d="m 96.835725,153.18051 -12.98835,0.002 v 21.56974 l 4.58111,-10.5115 c 0.24504,-0.56437 1.04897,-0.53905 1.25574,0.0408 0.27661,0.76854 0.21155,0.58339 0.39377,1.08934 v -7.35347 h 6.06113 c 0.41999,0 0.81315,0.02 1.18494,0.0543 v -4.87774 c -0.16399,-0.004 -0.32066,-0.0134 -0.48834,-0.0134 z m -7.84086,13.13976 -5.14749,11.81478 v 3.53881 h 6.23062 v -10.05314 h 0.87127 c -0.8916,-2.38503 -1.6245,-4.38616 -1.9544,-5.30045 z m 7.73387,0.49862 c 0,-0.001 -0.66935,0.006 -1.02869,0.006 h -5.0965 c 0.50081,1.38237 0.58119,1.58301 1.47537,3.97599 0.0998,0.267 0.20727,0.54802 0.30954,0.8201 h 4.09397 c 0.0795,0 0.15591,-0.004 0.23461,-0.006 z"
       sodipodi:nodetypes="cccccccscccccccccccccscsccc" />
    <path
       id="path15"
       style="font-weight:bold;font-size:22.5778px;line-height:0;font-family:'Liberation Mono';-inkscape-font-specification:'Liberation Mono Bold';letter-spacing:0.608542px;opacity:1;fill:#ff2a2a;stroke-width:2.8738;stroke-linejoin:round;paint-order:fill markers stroke"
       d="m 126.44404,153.37624 v 28.49171 h 6.2304 v -10.05298 h 7.01154 c 0.0795,0 0.15595,-0.004 0.23465,-0.006 v -4.83739 c -0.32202,0.0283 -0.65745,0.0475 -1.01679,0.0475 h -6.2294 v -8.80751 h 6.0611 c 0.41999,0 0.8133,0.0201 1.18509,0.0544 v -4.87799 c -0.16399,-0.004 -0.32042,-0.0134 -0.4881,-0.0134 z" />
    <g
       id="g16"
       transform="translate(-15.773798,-23.003432)">
      <path
         d="m 173.54297,170.0625 -5.6875,5.78125 1.0957,-0.3125 c 1.4102,-0.40363 2.85334,0.25306 3.4668,1.58008 l 0.48047,1.04101 z"
         style="color:#000000;fill:#ffcc00;fill-rule:evenodd;-inkscape-stroke:none"
         id="path16" />
    </g>
    <path
       style="color:#000000;fill:#ffcc00;stroke-linejoin:round;-inkscape-stroke:none;paint-order:fill markers stroke"
       d="m 154.95276,151.60399 -0.125,0.27149 c -6.2725,13.72958 -3.14553,6.88503 -6.33594,13.83593 -1.59885,3.48343 -3.21081,6.99015 -4.45507,9.67578 -0.62208,1.3427 -1.15242,2.48006 -1.54102,3.30469 -0.0747,0.15847 -0.11726,0.24709 -0.17969,0.37891 -0.18001,-0.37822 -0.38139,-0.82031 -0.61914,-1.37891 -0.69297,-1.62821 -1.57402,-3.88246 -2.44336,-6.16601 -0.34761,-0.91311 -0.69341,-1.8297 -1.02343,-2.71289 -1.28435,-3.43715 -0.26857,-0.61266 -2.39454,-6.51954 -0.20677,-0.57987 -1.01081,-0.60537 -1.25585,-0.041 l -6.03321,13.84375 -4.58789,-6.51172 -1.10351,0.77734 5.27929,7.4961 c 0.30245,0.42901 0.9624,0.36009 1.17188,-0.1211 l 5.83984,-13.40429 c 0.43997,1.21932 1.45564,4.02951 2.84375,7.67578 0.87167,2.28966 1.76096,4.55905 2.46485,6.21289 0.35195,0.82696 0.66169,1.51015 0.90625,1.97266 0.12249,0.23166 0.23555,0.42512 0.36132,0.58007 0.0397,0.049 0.13124,0.18299 0.34375,0.2793 0.11571,0.0525 0.29755,0.0942 0.49414,0.0391 0.18814,-0.0526 0.35127,-0.20366 0.42188,-0.31836 0.0704,-0.11431 0.13845,-0.26164 0.25781,-0.50781 0.12027,-0.24803 0.28119,-0.58542 0.47656,-1 0.39069,-0.82904 0.9203,-1.96656 1.54297,-3.31055 1.24535,-2.68796 2.8618,-6.19758 4.46094,-9.68164 3.19064,-6.95142 0.0643,-0.10622 6.33594,-13.83789 l 0.125,-0.27343 z"
       id="path17" />
    <path
       style="opacity:1;fill:none;stroke:#ffcc00;stroke-width:0.75;stroke-linejoin:round;marker-end:url(#ConcaveTriangle);paint-order:fill markers stroke"
       d="m 77.394235,172.29266 5.10874,7.24873 6.51208,-14.94603 c 0,0 6.72125,18.68767 7.20697,17.89862 0.48571,-0.78901 13.034775,-28.26421 13.034775,-28.26421"
       id="path18" />
  </g>
</svg>
