<?xml version="1.0" encoding="UTF-8" standalone="no"?>
<!-- Created with Inkscape (http://www.inkscape.org/) -->

<svg
   width="210mm"
   height="297mm"
   viewBox="0 0 210 297"
   version="1.1"
   id="svg1"
   inkscape:version="1.3 (1:1.3+202307231459+0e150ed6c4)"
   sodipodi:docname="fplot.svg"
   xmlns:inkscape="http://www.inkscape.org/namespaces/inkscape"
   xmlns:sodipodi="http://sodipodi.sourceforge.net/DTD/sodipodi-0.dtd"
   xmlns="http://www.w3.org/2000/svg"
   xmlns:svg="http://www.w3.org/2000/svg">
  <sodipodi:namedview
     id="namedview1"
     pagecolor="#ffffff"
     bordercolor="#000000"
     borderopacity="0.25"
     inkscape:showpageshadow="2"
     inkscape:pageopacity="0.0"
     inkscape:pagecheckerboard="0"
     inkscape:deskcolor="#d1d1d1"
     inkscape:document-units="mm"
     inkscape:zoom="0.70710678"
     inkscape:cx="874.69108"
     inkscape:cy="350.01786"
     inkscape:window-width="1920"
     inkscape:window-height="1172"
     inkscape:window-x="1920"
     inkscape:window-y="0"
     inkscape:window-maximized="1"
     inkscape:current-layer="layer1" />
  <defs
     id="defs1">
    <inkscape:path-effect
       effect="offset"
       id="path-effect14"
       is_visible="true"
       lpeversion="1.2"
       linejoin_type="miter"
       unit="mm"
       offset="0.3"
       miter_limit="4"
       attempt_force_join="false"
       update_on_knot_move="true" />
    <marker
       style="overflow:visible"
       id="ConcaveTriangle"
       refX="0"
       refY="0"
       orient="auto-start-reverse"
       inkscape:stockid="Concave triangle arrow"
       markerWidth="1"
       markerHeight="1"
       viewBox="0 0 1 1"
       inkscape:isstock="true"
       inkscape:collect="always"
       preserveAspectRatio="xMidYMid">
      <path
         transform="scale(0.7)"
         d="M -2,-4 9,0 -2,4 c 2,-2.33 2,-5.66 0,-8 z"
         style="fill:context-stroke;fill-rule:evenodd;stroke:none"
         id="path7" />
    </marker>
  </defs>
  <g
     inkscape:label="Layer 1"
     inkscape:groupmode="layer"
     id="layer1">
    <circle
       style="opacity:1;fill:#80e5ff;stroke:none;stroke-width:1.33249;stroke-linejoin:round;paint-order:fill markers stroke"
       id="circle36"
       cx="317.56116"
       cy="-175.02974"
       r="42.872925" />
    <circle
       style="opacity:1;fill:#80e5ff;stroke:none;stroke-width:1.57654;stroke-linejoin:round;paint-order:fill markers stroke"
       id="circle20"
       cx="304.2753"
       cy="76.862335"
       r="50.725243" />
    <path
       id="path28"
       style="opacity:1;fill:#00d4aa;stroke-width:0.750001;stroke-linejoin:round;paint-order:fill markers stroke"
       d="m 303.14759,76.862366 a 12.687702,12.687702 0 0 1 0.86403,0.02946 12.687702,12.687702 0 0 1 0.86196,0.08888 12.687702,12.687702 0 0 1 0.85369,0.146762 12.687702,12.687702 0 0 1 0.84181,0.205155 12.687702,12.687702 0 0 1 0.82579,0.262516 12.687702,12.687702 0 0 1 0.80564,0.31781 12.687702,12.687702 0 0 1 0.78238,0.372071 12.687702,12.687702 0 0 1 0.75499,0.424263 12.687702,12.687702 0 0 1 0.72451,0.475423 12.687702,12.687702 0 0 1 0.69039,0.523483 12.687702,12.687702 0 0 1 0.65319,0.568957 12.687702,12.687702 0 0 1 0.61237,0.612883 12.687702,12.687702 0 0 1 0.56947,0.65319 12.687702,12.687702 0 0 1 0.52348,0.68988 12.687702,12.687702 0 0 1 0.47491,0.724504 12.687702,12.687702 0 0 1 0.42478,0.755509 12.687702,12.687702 0 0 1 0.37207,0.782381 12.687702,12.687702 0 0 1 0.31781,0.805636 12.687702,12.687702 0 0 1 0.262,0.825789 12.687702,12.687702 0 0 1 0.20516,0.841809 12.687702,12.687702 0 0 1 0.14727,0.853695 12.687702,12.687702 0 0 1 0.0884,0.861963 12.687702,12.687702 0 0 1 0.03,0.86558 12.687702,12.687702 0 0 1 -0.24391,2.475301 12.687702,12.687702 0 0 1 -0.72192,2.380213 12.687702,12.687702 0 0 1 -1.17254,2.19367 12.687702,12.687702 0 0 1 -1.57768,1.92236 12.687702,12.687702 0 0 1 -1.92288,1.578201 12.687702,12.687702 0 0 1 -2.19366,1.17202 12.687702,12.687702 0 0 1 -2.38022,0.72244 12.687702,12.687702 0 0 1 -2.47478,0.2434 12.687702,12.687702 0 0 0 -2.47531,0.24391 12.687702,12.687702 0 0 0 -2.38021,0.72192 12.687702,12.687702 0 0 0 -2.19367,1.17254 12.687702,12.687702 0 0 0 -1.92288,1.57768 12.687702,12.687702 0 0 0 -1.57768,1.92288 12.687702,12.687702 0 0 0 -1.17254,2.19366 12.687702,12.687702 0 0 0 -0.72192,2.38022 12.687702,12.687702 0 0 0 -0.24391,2.4753 12.687702,12.687702 0 0 0 0.24391,2.47479 12.687702,12.687702 0 0 0 0.72192,2.38021 12.687702,12.687702 0 0 0 1.17254,2.19367 12.687702,12.687702 0 0 0 1.5782,1.92288 12.687702,12.687702 0 0 0 1.92236,1.57768 12.687702,12.687702 0 0 0 2.19367,1.17254 12.687702,12.687702 0 0 0 2.38021,0.72192 12.687702,12.687702 0 0 0 2.45774,0.24236 25.375404,25.375404 0 0 0 0.017,0.001 25.375404,25.375404 0 0 0 25.37571,-25.37519 25.375404,25.375404 0 0 0 -25.37364,-25.375203 z m -3.59875,0.256832 a 25.375404,25.375404 0 0 0 -0.0284,0.0041 25.375404,25.375404 0 0 1 0.014,-0.0026 25.375404,25.375404 0 0 1 0.0145,-0.0016 z m -13.01161,5.934005 a 25.375404,25.375404 0 0 0 -0.009,0.0072 25.375404,25.375404 0 0 1 0.009,-0.0072 z m -6.46472,8.62583 a 25.375404,25.375404 0 0 0 -0.016,0.03462 25.375404,25.375404 0 0 1 0.007,-0.01705 25.375404,25.375404 0 0 1 0.009,-0.01757 z m -0.0139,21.087607 a 25.375404,25.375404 0 0 0 0.0109,0.0238 25.375404,25.375404 0 0 1 -0.006,-0.0114 25.375404,25.375404 0 0 1 -0.005,-0.0124 z" />
    <circle
       style="opacity:1;fill:#006680;stroke:none;stroke-width:0.750001;stroke-linejoin:round;paint-order:fill markers stroke"
       id="circle26"
       cx="66.307419"
       cy="52.731007"
       r="24.13133" />
    <rect
       style="opacity:1;fill:#006680;stroke:#000000;stroke-width:0.75;stroke-linejoin:round;paint-order:fill markers stroke"
       id="rect18"
       width="37.478924"
       height="37.478924"
       x="137.10139"
       y="168.40271"
       rx="4.9217234"
       ry="4.9217234" />
    <rect
       style="opacity:1;fill:#80b3ff;stroke:#000000;stroke-width:0.75;stroke-linejoin:round;paint-order:fill markers stroke"
       id="rect6"
       width="37.478924"
       height="37.478924"
       x="90.45472"
       y="168.40271"
       rx="4.9217234"
       ry="4.9217234" />
    <path
       id="path2"
       style="font-weight:bold;font-size:22.5778px;line-height:0;font-family:'Liberation Mono';-inkscape-font-specification:'Liberation Mono Bold';letter-spacing:0.608542px;opacity:0.998763;stroke-width:1.5;stroke-linejoin:round;paint-order:fill markers stroke"
       d="m 104.20991,241.75734 v 14.87144 h 3.252 v -5.24722 l 3.65965,0 c 1.18328,0 2.19752,-0.20247 3.04271,-0.60669 0.85255,-0.40422 1.50298,-0.97748 1.9513,-1.71979 0.44832,-0.74965 0.67231,-1.61655 0.67231,-2.60139 0,-1.53605 -0.49609,-2.70113 -1.48828,-3.49488 -0.98484,-0.8011 -2.4215,-1.20147 -4.31033,-1.20147 z m 3.252,2.52439 3.16356,0 c 0.96278,0 1.68287,0.17288 2.16059,0.51831 0.48507,0.33808 0.7276,0.90732 0.7276,1.70843 0,0.77904 -0.22399,1.37086 -0.67231,1.77508 -0.44832,0.39688 -1.15789,0.59532 -2.12803,0.59532 l -3.25141,0 z"
       sodipodi:nodetypes="ccccsccscsccscscscc" />
    <path
       style="opacity:0.291965;fill:none;stroke:#000000;stroke-width:1.5;stroke-linejoin:round;marker-end:url(#ConcaveTriangle);paint-order:fill markers stroke"
       d="m 31.725756,134.89167 15.29303,17.87226 19.493888,-36.85044 c 0,0 20.120057,46.07578 21.574048,44.13034 1.453992,-1.94544 39.019598,-69.68747 39.019598,-69.68747"
       id="path1" />
    <text
       xml:space="preserve"
       style="font-weight:bold;font-size:22.5778px;line-height:0;font-family:'Liberation Mono';-inkscape-font-specification:'Liberation Mono Bold';letter-spacing:0.608542px;opacity:0.291965;fill:#000000;stroke:none;stroke-width:1.5;stroke-linejoin:round;paint-order:fill markers stroke"
       x="36.115349"
       y="227.89355"
       id="text1"><tspan
         sodipodi:role="line"
         id="tspan1"
         style="stroke-width:1.5;stroke:none;fill:#000000"
         x="36.115349"
         y="227.89355">FP</tspan></text>
    <path
       style="font-weight:bold;font-size:22.5778px;line-height:0;font-family:'Liberation Mono';-inkscape-font-specification:'Liberation Mono Bold';letter-spacing:0.608542px;opacity:0.998763;stroke-width:1.5;stroke-linejoin:round;paint-order:fill markers stroke"
       d="m 87.054118,244.27077 v 4.23334 h 6.846101 v 2.51354 h -6.846101 v 5.61138 h -3.252173 v -14.87181 h 10.351833 v 2.51355 z"
       id="text2" />
    <path
       id="path3"
       style="font-weight:bold;font-size:22.5778px;line-height:0;font-family:'Liberation Mono';-inkscape-font-specification:'Liberation Mono Bold';letter-spacing:0.608542px;opacity:1;stroke-width:1.5;stroke-linejoin:round;paint-order:fill markers stroke;fill:#ff2a2a"
       d="M 104.20966 241.75734 L 104.20966 256.62878 L 107.46166 256.62878 L 107.46166 251.38156 L 111.12138 251.38156 C 111.16292 251.38156 111.20274 251.37947 111.24386 251.37897 L 111.24386 248.85406 C 111.07578 248.8689 110.9007 248.87887 110.71314 248.87887 L 107.46166 248.87887 L 107.46166 244.28173 L 110.62529 244.28173 C 110.84451 244.28173 111.0498 244.29223 111.24386 244.31015 L 111.24386 241.76405 C 111.15828 241.76234 111.07661 241.75734 110.98909 241.75734 L 104.20966 241.75734 z " />
    <path
       id="path4"
       style="font-weight:bold;font-size:22.5778px;line-height:0;font-family:'Liberation Mono';-inkscape-font-specification:'Liberation Mono Bold';letter-spacing:0.608542px;opacity:0.998763;stroke-width:2.8738;stroke-linejoin:round;paint-order:fill markers stroke;fill:#005544"
       d="m 98.450145,174.19758 v 28.49171 h 6.230405 v -10.05298 h 7.0114 c 2.26701,0 4.21016,-0.3879 5.82943,-1.16234 1.63338,-0.77443 2.87951,-1.87272 3.73844,-3.29489 0.85892,-1.43623 1.28805,-3.09709 1.28805,-4.98392 0,-2.94287 -0.95044,-5.175 -2.85134,-6.69572 -1.88683,-1.53481 -4.63928,-2.30186 -8.25803,-2.30186 z m 6.230405,4.8364 h 6.06096 c 1.84456,0 3.22416,0.33121 4.13941,0.99301 0.92933,0.64772 1.39398,1.7383 1.39398,3.27312 0,1.49254 -0.42913,2.62639 -1.28806,3.40082 -0.85892,0.76037 -2.21836,1.14056 -4.07702,1.14056 h -6.22927 z"
       sodipodi:nodetypes="ccccsccscsccscscscc" />
    <path
       id="path5"
       style="font-weight:bold;font-size:22.5778px;line-height:0;font-family:'Liberation Mono';-inkscape-font-specification:'Liberation Mono Bold';letter-spacing:0.608542px;opacity:1;fill:#ff2a2a;stroke-width:2.8738;stroke-linejoin:round;paint-order:fill markers stroke"
       d="m 98.449666,174.19758 v 28.49171 h 6.230404 v -10.05298 h 7.01154 c 0.0795,0 0.15595,-0.004 0.23465,-0.006 v -4.83739 c -0.32202,0.0283 -0.65745,0.0475 -1.01679,0.0475 h -6.2294 v -8.80751 h 6.0611 c 0.41999,0 0.8133,0.0201 1.18509,0.0544 v -4.87799 c -0.16399,-0.004 -0.32042,-0.0134 -0.4881,-0.0134 z" />
    <path
       style="opacity:1;fill:none;stroke:#ffcc00;stroke-width:0.75;stroke-linejoin:round;marker-end:url(#ConcaveTriangle);paint-order:fill markers stroke"
       d="m 91.910354,193.17522 5.108747,7.24873 6.512079,-14.94603 c 0,0 6.72125,18.68767 7.20697,17.89862 0.48571,-0.78901 13.03478,-28.26421 13.03478,-28.26421"
       id="path6" />
    <path
       id="path8"
       style="font-weight:bold;font-size:22.5778px;line-height:0;font-family:'Liberation Mono';-inkscape-font-specification:'Liberation Mono Bold';letter-spacing:0.608542px;opacity:0.998763;fill:#5fd38d;stroke-width:2.8738;stroke-linejoin:round;paint-order:fill markers stroke"
       d="M 145.77301 174.19764 L 145.77301 195.76635 L 150.35361 185.25588 C 150.59865 184.69151 151.40258 184.71683 151.60935 185.2967 C 151.88596 186.06524 151.8209 185.88009 152.00312 186.38604 L 152.00312 179.03403 L 158.06425 179.03403 C 159.90881 179.03403 161.28829 179.36494 162.20354 180.02674 C 163.13287 180.67446 163.59777 181.7651 163.59777 183.29992 C 163.59777 184.79246 163.1684 185.92632 162.30947 186.70075 C 161.45055 187.46112 160.09138 187.84125 158.23272 187.84125 L 152.52919 187.84125 C 153.02963 189.22261 153.11003 189.42367 154.00404 191.8162 C 154.10381 192.0832 154.21131 192.36422 154.31358 192.6363 L 159.01458 192.6363 C 160.33517 192.6363 161.54251 192.50035 162.6433 192.23736 C 163.21047 191.00377 163.68336 189.98326 164.26543 188.7151 C 166.57644 183.68013 167.19971 182.31343 168.85481 178.69245 C 168.39714 177.84616 167.78704 177.11353 167.01926 176.4993 C 165.13243 174.9645 162.38012 174.19764 158.76137 174.19764 L 145.77301 174.19764 z M 169.53901 180.44325 C 168.56236 182.57869 167.5312 184.83955 165.49429 189.27734 C 165.09866 190.1393 164.78235 190.82028 164.39048 191.67254 C 164.54345 191.60838 164.69662 191.54469 164.8442 191.4741 C 166.47758 190.69967 167.72355 189.60138 168.58247 188.17921 C 169.44139 186.74298 169.87077 185.08185 169.87077 183.19502 C 169.87077 182.19501 169.7585 181.27909 169.53901 180.44325 z M 150.91999 187.33585 L 145.77301 199.1496 L 145.77301 202.68944 L 152.00312 202.68944 L 152.00312 192.6363 L 152.87439 192.6363 C 151.98279 190.25127 151.24989 188.25014 150.91999 187.33585 z " />
    <path
       id="path9"
       style="font-weight:bold;font-size:22.5778px;line-height:0;font-family:'Liberation Mono';-inkscape-font-specification:'Liberation Mono Bold';letter-spacing:0.608542px;opacity:1;fill:#ffffff;stroke-width:2.8738;stroke-linejoin:round;paint-order:fill markers stroke"
       d="m 158.76085,174.19609 -12.98835,0.002 v 21.56974 l 4.58111,-10.5115 c 0.24504,-0.56437 1.04897,-0.53905 1.25574,0.0408 0.27661,0.76854 0.21155,0.58339 0.39377,1.08934 V 179.033 h 6.06113 c 0.41999,0 0.81315,0.02 1.18494,0.0543 v -4.87774 c -0.16399,-0.004 -0.32066,-0.0134 -0.48834,-0.0134 z m -7.84086,13.13976 -5.14749,11.81478 v 3.53881 h 6.23062 V 192.6363 h 0.87127 c -0.8916,-2.38503 -1.6245,-4.38616 -1.9544,-5.30045 z m 7.73387,0.49862 c 0,-0.001 -0.66935,0.006 -1.02869,0.006 h -5.0965 c 0.50081,1.38237 0.58119,1.58301 1.47537,3.97599 0.0998,0.267 0.20727,0.54802 0.30954,0.8201 h 4.09397 c 0.0795,0 0.15591,-0.004 0.23461,-0.006 z"
       sodipodi:nodetypes="cccccccscccccccccccccscsccc" />
    <path
       id="path15"
       style="font-weight:bold;font-size:22.5778px;line-height:0;font-family:'Liberation Mono';-inkscape-font-specification:'Liberation Mono Bold';letter-spacing:0.608542px;opacity:1;fill:#ff2a2a;stroke-width:2.8738;stroke-linejoin:round;paint-order:fill markers stroke"
       d="m 188.36917,174.39182 v 28.49171 h 6.2304 v -10.05298 h 7.01154 c 0.0795,0 0.15595,-0.004 0.23465,-0.006 v -4.83739 c -0.32202,0.0283 -0.65745,0.0475 -1.01679,0.0475 h -6.2294 v -8.80751 h 6.0611 c 0.41999,0 0.8133,0.0201 1.18509,0.0544 v -4.87799 c -0.16399,-0.004 -0.32042,-0.0134 -0.4881,-0.0134 z" />
    <g
       id="g16"
       transform="translate(46.151327,-1.9878543)">
      <path
         d="m 173.54297,170.0625 -5.6875,5.78125 1.0957,-0.3125 c 1.4102,-0.40363 2.85334,0.25306 3.4668,1.58008 l 0.48047,1.04101 z"
         style="color:#000000;fill:#ffcc00;fill-rule:evenodd;-inkscape-stroke:none"
         id="path16" />
    </g>
    <path
       style="color:#000000;fill:#ffcc00;stroke-linejoin:round;-inkscape-stroke:none;paint-order:fill markers stroke"
       d="m 216.87789,172.61957 -0.125,0.27149 c -6.2725,13.72958 -3.14553,6.88503 -6.33594,13.83593 -1.59885,3.48343 -3.21081,6.99015 -4.45507,9.67578 -0.62208,1.3427 -1.15242,2.48006 -1.54102,3.30469 -0.0747,0.15847 -0.11726,0.24709 -0.17969,0.37891 -0.18001,-0.37822 -0.38139,-0.82031 -0.61914,-1.37891 -0.69297,-1.62821 -1.57402,-3.88246 -2.44336,-6.16601 -0.34761,-0.91311 -0.69341,-1.8297 -1.02343,-2.71289 -1.28435,-3.43715 -0.26857,-0.61266 -2.39454,-6.51954 -0.20677,-0.57987 -1.01081,-0.60537 -1.25585,-0.041 l -6.03321,13.84375 -4.58789,-6.51172 -1.10351,0.77734 5.27929,7.4961 c 0.30245,0.42901 0.9624,0.36009 1.17188,-0.1211 l 5.83984,-13.40429 c 0.43997,1.21932 1.45564,4.02951 2.84375,7.67578 0.87167,2.28966 1.76096,4.55905 2.46485,6.21289 0.35195,0.82696 0.66169,1.51015 0.90625,1.97266 0.12249,0.23166 0.23555,0.42512 0.36132,0.58007 0.0397,0.049 0.13124,0.18299 0.34375,0.2793 0.11571,0.0525 0.29755,0.0942 0.49414,0.0391 0.18814,-0.0526 0.35127,-0.20366 0.42188,-0.31836 0.0704,-0.11431 0.13845,-0.26164 0.25781,-0.50781 0.12027,-0.24803 0.28119,-0.58542 0.47656,-1 0.39069,-0.82904 0.9203,-1.96656 1.54297,-3.31055 1.24535,-2.68796 2.8618,-6.19758 4.46094,-9.68164 3.19064,-6.95142 0.0643,-0.10622 6.33594,-13.83789 l 0.125,-0.27343 z"
       id="path17" />
    <path
       style="opacity:1;fill:none;stroke:#ffcc00;stroke-width:0.75;stroke-linejoin:round;marker-end:url(#ConcaveTriangle);paint-order:fill markers stroke"
       d="m 139.31936,193.30824 5.10874,7.24873 6.51208,-14.94603 c 0,0 6.72125,18.68767 7.20697,17.89862 0.48571,-0.78901 13.03478,-28.26421 13.03478,-28.26421"
       id="path18" />
    <circle
       style="opacity:1;fill:#5fd38d;stroke:none;stroke-width:0.750001;stroke-linejoin:round;paint-order:fill markers stroke"
       id="path19"
       cx="125.97087"
       cy="52.731007"
       r="24.13133" />
    <circle
       style="opacity:1;fill:#80e5ff;stroke:none;stroke-width:0.375001;stroke-linejoin:round;paint-order:fill markers stroke"
       id="circle19"
       cx="125.97087"
       cy="40.66534"
       r="12.065665" />
    <circle
       style="opacity:1;fill:#80e5ff;stroke:none;stroke-width:0.375001;stroke-linejoin:round;paint-order:fill markers stroke"
       id="circle21"
       cx="125.97087"
       cy="64.796669"
       r="12.065665"
       inkscape:transform-center-y="-19.685564" />
    <path
       id="path26"
       style="opacity:1;fill:#00d4aa;stroke-width:0.750001;stroke-linejoin:round;paint-order:fill markers stroke"
       d="M 66.25332 28.599805 A 24.13133 24.13133 0 0 0 62.818905 28.845268 A 24.13133 24.13133 0 0 0 59.454769 29.577006 A 24.13133 24.13133 0 0 0 56.228609 30.78055 A 24.13133 24.13133 0 0 0 53.206571 32.430579 A 24.13133 24.13133 0 0 0 50.450667 34.494019 A 24.13133 24.13133 0 0 0 48.015674 36.928495 A 24.13133 24.13133 0 0 0 45.952751 39.684399 A 24.13133 24.13133 0 0 0 44.302722 42.706437 A 24.13133 24.13133 0 0 0 43.099178 45.932597 A 24.13133 24.13133 0 0 0 42.36744 49.296733 A 24.13133 24.13133 0 0 0 42.121977 52.731148 A 24.13133 24.13133 0 0 0 42.36744 56.165047 A 24.13133 24.13133 0 0 0 43.099178 59.5297 A 24.13133 24.13133 0 0 0 44.302722 62.755343 A 24.13133 24.13133 0 0 0 45.952751 65.77738 A 24.13133 24.13133 0 0 0 48.015674 68.533801 A 24.13133 24.13133 0 0 0 50.450667 70.968278 A 24.13133 24.13133 0 0 0 53.206571 73.031718 A 24.13133 24.13133 0 0 0 56.228609 74.681746 A 24.13133 24.13133 0 0 0 59.454769 75.884774 A 24.13133 24.13133 0 0 0 62.818905 76.616512 A 24.13133 24.13133 0 0 0 66.25332 76.862492 A 12.065665 12.065665 0 0 1 63.899459 76.630465 A 12.065665 12.065665 0 0 1 61.636031 75.943685 A 12.065665 12.065665 0 0 1 59.549854 74.829024 A 12.065665 12.065665 0 0 1 57.721541 73.328341 A 12.065665 12.065665 0 0 1 56.220858 71.500028 A 12.065665 12.065665 0 0 1 55.106197 69.413851 A 12.065665 12.065665 0 0 1 54.419417 67.150423 A 12.065665 12.065665 0 0 1 54.18739 64.796562 A 12.065665 12.065665 0 0 1 54.419417 62.4427 A 12.065665 12.065665 0 0 1 55.106197 60.179272 A 12.065665 12.065665 0 0 1 56.220858 58.093095 A 12.065665 12.065665 0 0 1 57.721541 56.264783 A 12.065665 12.065665 0 0 1 59.549854 54.764616 A 12.065665 12.065665 0 0 1 61.636031 53.649438 A 12.065665 12.065665 0 0 1 63.899459 52.962659 A 12.065665 12.065665 0 0 1 66.25332 52.731148 A 12.065665 12.065665 0 0 0 67.076526 52.702726 A 12.065665 12.065665 0 0 0 67.896114 52.618494 A 12.065665 12.065665 0 0 0 68.707951 52.478451 A 12.065665 12.065665 0 0 0 69.508419 52.28363 A 12.065665 12.065665 0 0 0 70.293901 52.03455 A 12.065665 12.065665 0 0 0 71.060262 51.732243 A 12.065665 12.065665 0 0 0 71.804403 51.378259 A 12.065665 12.065665 0 0 0 72.522188 50.974666 A 12.065665 12.065665 0 0 0 73.211035 50.522498 A 12.065665 12.065665 0 0 0 73.867843 50.024854 A 12.065665 12.065665 0 0 0 74.488477 49.483285 A 12.065665 12.065665 0 0 0 75.071387 48.900891 A 12.065665 12.065665 0 0 0 75.612439 48.27974 A 12.065665 12.065665 0 0 0 76.1106 47.62345 A 12.065665 12.065665 0 0 0 76.562252 46.934603 A 12.065665 12.065665 0 0 0 76.965845 46.2163 A 12.065665 12.065665 0 0 0 77.319828 45.47216 A 12.065665 12.065665 0 0 0 77.622135 44.705798 A 12.065665 12.065665 0 0 0 77.871216 43.920833 A 12.065665 12.065665 0 0 0 78.066553 43.120365 A 12.065665 12.065665 0 0 0 78.206596 42.308529 A 12.065665 12.065665 0 0 0 78.290828 41.48894 A 12.065665 12.065665 0 0 0 78.318734 40.665218 A 12.065665 12.065665 0 0 0 78.290828 39.842013 A 12.065665 12.065665 0 0 0 78.206596 39.022424 A 12.065665 12.065665 0 0 0 78.066553 38.210588 A 12.065665 12.065665 0 0 0 77.871216 37.41012 A 12.065665 12.065665 0 0 0 77.622135 36.624638 A 12.065665 12.065665 0 0 0 77.319828 35.858276 A 12.065665 12.065665 0 0 0 76.965845 35.114136 A 12.065665 12.065665 0 0 0 76.562252 34.39635 A 12.065665 12.065665 0 0 0 76.1106 33.707503 A 12.065665 12.065665 0 0 0 75.612439 33.050696 A 12.065665 12.065665 0 0 0 75.071387 32.430062 A 12.065665 12.065665 0 0 0 74.488477 31.847152 A 12.065665 12.065665 0 0 0 73.867843 31.306099 A 12.065665 12.065665 0 0 0 73.211035 30.807939 A 12.065665 12.065665 0 0 0 72.522188 30.356287 A 12.065665 12.065665 0 0 0 71.804403 29.952177 A 12.065665 12.065665 0 0 0 71.060262 29.59871 A 12.065665 12.065665 0 0 0 70.293901 29.296403 A 12.065665 12.065665 0 0 0 69.508419 29.047323 A 12.065665 12.065665 0 0 0 68.707951 28.851986 A 12.065665 12.065665 0 0 0 67.896114 28.711943 A 12.065665 12.065665 0 0 0 67.076526 28.62771 A 12.065665 12.065665 0 0 0 66.25332 28.599805 z " />
    <path
       id="path30"
       style="opacity:1;fill:#536c5d;stroke-width:0.750001;stroke-linejoin:round;paint-order:fill markers stroke"
       d="m 304.87358,26.229798 a 25.375404,25.375404 0 0 0 -3.61167,0.258383 25.375404,25.375404 0 0 0 -3.53777,0.769462 25.375404,25.375404 0 0 0 -3.39204,1.265039 25.375404,25.375404 0 0 0 -3.17758,1.735294 25.375404,25.375404 0 0 0 -2.89853,2.169894 25.375404,25.375404 0 0 0 -2.56005,2.56005 25.375404,25.375404 0 0 0 -2.1699,2.898014 25.375404,25.375404 0 0 0 -1.73478,3.178101 25.375404,25.375404 0 0 0 -1.26555,3.392041 25.375404,25.375404 0 0 0 -0.76946,3.537769 25.375404,25.375404 0 0 0 -0.25839,3.611149 25.375404,25.375404 0 0 0 0.25839,3.611666 25.375404,25.375404 0 0 0 0.76946,3.537768 25.375404,25.375404 0 0 0 1.26555,3.392041 25.375404,25.375404 0 0 0 1.73478,3.177584 25.375404,25.375404 0 0 0 2.1699,2.898531 25.375404,25.375404 0 0 0 2.56005,2.560051 25.375404,25.375404 0 0 0 2.89853,2.169893 25.375404,25.375404 0 0 0 3.17758,1.734778 25.375404,25.375404 0 0 0 3.39204,1.265556 25.375404,25.375404 0 0 0 3.53777,0.769462 25.375404,25.375404 0 0 0 3.61167,0.258382 12.687702,12.687702 0 0 1 -2.47531,-0.243913 12.687702,12.687702 0 0 1 -2.38021,-0.72192 12.687702,12.687702 0 0 1 -2.19367,-1.172538 12.687702,12.687702 0 0 1 -1.92236,-1.577681 12.687702,12.687702 0 0 1 -1.5782,-1.92288 12.687702,12.687702 0 0 1 -1.17254,-2.193665 12.687702,12.687702 0 0 1 -0.72192,-2.380217 12.687702,12.687702 0 0 1 -0.24391,-2.474784 12.687702,12.687702 0 0 1 0.24391,-2.475301 12.687702,12.687702 0 0 1 0.72192,-2.380216 12.687702,12.687702 0 0 1 1.17254,-2.193665 12.687702,12.687702 0 0 1 1.57768,-1.92288 12.687702,12.687702 0 0 1 1.92288,-1.577681 12.687702,12.687702 0 0 1 2.19367,-1.172539 12.687702,12.687702 0 0 1 2.38021,-0.72192 12.687702,12.687702 0 0 1 2.47531,-0.243912 12.687702,12.687702 0 0 0 2.47478,-0.243396 12.687702,12.687702 0 0 0 2.38022,-0.722437 12.687702,12.687702 0 0 0 2.19366,-1.172021 12.687702,12.687702 0 0 0 1.92288,-1.578199 12.687702,12.687702 0 0 0 1.57768,-1.922363 12.687702,12.687702 0 0 0 1.17254,-2.193664 12.687702,12.687702 0 0 0 0.72192,-2.380217 12.687702,12.687702 0 0 0 0.24391,-2.475301 12.687702,12.687702 0 0 0 -0.03,-0.86558 12.687702,12.687702 0 0 0 -0.0884,-0.861963 12.687702,12.687702 0 0 0 -0.14727,-0.853695 12.687702,12.687702 0 0 0 -0.20516,-0.841809 12.687702,12.687702 0 0 0 -0.262,-0.825789 12.687702,12.687702 0 0 0 -0.31781,-0.805636 12.687702,12.687702 0 0 0 -0.37207,-0.782381 12.687702,12.687702 0 0 0 -0.42478,-0.755509 12.687702,12.687702 0 0 0 -0.47491,-0.724504 12.687702,12.687702 0 0 0 -0.52348,-0.68988 12.687702,12.687702 0 0 0 -0.56947,-0.65319 12.687702,12.687702 0 0 0 -0.61237,-0.612883 12.687702,12.687702 0 0 0 -0.65319,-0.568957 12.687702,12.687702 0 0 0 -0.69039,-0.523483 12.687702,12.687702 0 0 0 -0.72451,-0.475423 12.687702,12.687702 0 0 0 -0.75499,-0.424263 12.687702,12.687702 0 0 0 -0.78238,-0.372071 12.687702,12.687702 0 0 0 -0.80564,-0.31781 12.687702,12.687702 0 0 0 -0.82579,-0.262516 12.687702,12.687702 0 0 0 -0.84181,-0.205155 12.687702,12.687702 0 0 0 -0.85369,-0.146762 12.687702,12.687702 0 0 0 -0.86196,-0.08888 12.687702,12.687702 0 0 0 -0.86558,-0.02946 z" />
    <circle
       style="opacity:1;fill:#80e5ff;stroke:none;stroke-width:1.57654;stroke-linejoin:round;paint-order:fill markers stroke"
       id="circle31"
       cx="424.27225"
       cy="76.862335"
       r="50.725243" />
    <path
       id="path31"
       style="opacity:1;fill:#6f918a;stroke-width:0.750001;stroke-linejoin:round;paint-order:fill markers stroke"
       d="m 423.14453,76.862366 a 12.687702,12.687702 0 0 1 0.86403,0.02946 12.687702,12.687702 0 0 1 0.86196,0.08888 12.687702,12.687702 0 0 1 0.85369,0.146762 12.687702,12.687702 0 0 1 0.84181,0.205155 12.687702,12.687702 0 0 1 0.82579,0.262516 12.687702,12.687702 0 0 1 0.80564,0.31781 12.687702,12.687702 0 0 1 0.78238,0.372071 12.687702,12.687702 0 0 1 0.75499,0.424263 12.687702,12.687702 0 0 1 0.72451,0.475423 12.687702,12.687702 0 0 1 0.69039,0.523483 12.687702,12.687702 0 0 1 0.65319,0.568957 12.687702,12.687702 0 0 1 0.61237,0.612883 12.687702,12.687702 0 0 1 0.56947,0.65319 12.687702,12.687702 0 0 1 0.52348,0.68988 12.687702,12.687702 0 0 1 0.47491,0.724504 12.687702,12.687702 0 0 1 0.42478,0.755509 12.687702,12.687702 0 0 1 0.37207,0.782381 12.687702,12.687702 0 0 1 0.31781,0.805636 12.687702,12.687702 0 0 1 0.262,0.825789 12.687702,12.687702 0 0 1 0.20516,0.841809 12.687702,12.687702 0 0 1 0.14727,0.853695 12.687702,12.687702 0 0 1 0.0884,0.861963 12.687702,12.687702 0 0 1 0.03,0.86558 12.687702,12.687702 0 0 1 -0.24391,2.475301 12.687702,12.687702 0 0 1 -0.72192,2.380213 12.687702,12.687702 0 0 1 -1.17254,2.19367 12.687702,12.687702 0 0 1 -1.57768,1.92236 12.687702,12.687702 0 0 1 -1.92288,1.578201 12.687702,12.687702 0 0 1 -2.19366,1.17202 12.687702,12.687702 0 0 1 -2.38022,0.72244 12.687702,12.687702 0 0 1 -2.47478,0.2434 12.687702,12.687702 0 0 0 -2.47531,0.24391 12.687702,12.687702 0 0 0 -2.38021,0.72192 12.687702,12.687702 0 0 0 -2.19367,1.17254 12.687702,12.687702 0 0 0 -1.92288,1.57768 12.687702,12.687702 0 0 0 -1.57768,1.92288 12.687702,12.687702 0 0 0 -1.17254,2.19366 12.687702,12.687702 0 0 0 -0.72192,2.38022 12.687702,12.687702 0 0 0 -0.24391,2.4753 12.687702,12.687702 0 0 0 0.24391,2.47479 12.687702,12.687702 0 0 0 0.72192,2.38021 12.687702,12.687702 0 0 0 1.17254,2.19367 12.687702,12.687702 0 0 0 1.5782,1.92288 12.687702,12.687702 0 0 0 1.92236,1.57768 12.687702,12.687702 0 0 0 2.19367,1.17254 12.687702,12.687702 0 0 0 2.38021,0.72192 12.687702,12.687702 0 0 0 2.45774,0.24236 25.375404,25.375404 0 0 0 0.017,0.001 25.375404,25.375404 0 0 0 25.37571,-25.37519 25.375404,25.375404 0 0 0 -25.37364,-25.375203 z m -3.59875,0.256832 a 25.375404,25.375404 0 0 0 -0.0284,0.0041 25.375404,25.375404 0 0 1 0.014,-0.0026 25.375404,25.375404 0 0 1 0.0145,-0.0016 z m -13.01161,5.934005 a 25.375404,25.375404 0 0 0 -0.009,0.0072 25.375404,25.375404 0 0 1 0.009,-0.0072 z m -6.46472,8.62583 a 25.375404,25.375404 0 0 0 -0.016,0.03462 25.375404,25.375404 0 0 1 0.007,-0.01705 25.375404,25.375404 0 0 1 0.009,-0.01757 z m -0.0139,21.087607 a 25.375404,25.375404 0 0 0 0.0109,0.0238 25.375404,25.375404 0 0 1 -0.006,-0.0114 25.375404,25.375404 0 0 1 -0.005,-0.0124 z" />
    <path
       id="path32"
       style="opacity:1;fill:#6f918a;stroke-width:0.750001;stroke-linejoin:round;paint-order:fill markers stroke"
       d="m 424.87052,26.229798 a 25.375404,25.375404 0 0 0 -3.61167,0.258383 25.375404,25.375404 0 0 0 -3.53777,0.769462 25.375404,25.375404 0 0 0 -3.39204,1.265039 25.375404,25.375404 0 0 0 -3.17758,1.735294 25.375404,25.375404 0 0 0 -2.89853,2.169894 25.375404,25.375404 0 0 0 -2.56005,2.56005 25.375404,25.375404 0 0 0 -2.1699,2.898014 25.375404,25.375404 0 0 0 -1.73478,3.178101 25.375404,25.375404 0 0 0 -1.26555,3.392041 25.375404,25.375404 0 0 0 -0.76946,3.537769 25.375404,25.375404 0 0 0 -0.25839,3.611149 25.375404,25.375404 0 0 0 0.25839,3.611666 25.375404,25.375404 0 0 0 0.76946,3.537768 25.375404,25.375404 0 0 0 1.26555,3.392041 25.375404,25.375404 0 0 0 1.73478,3.177584 25.375404,25.375404 0 0 0 2.1699,2.898531 25.375404,25.375404 0 0 0 2.56005,2.560051 25.375404,25.375404 0 0 0 2.89853,2.169893 25.375404,25.375404 0 0 0 3.17758,1.734778 25.375404,25.375404 0 0 0 3.39204,1.265556 25.375404,25.375404 0 0 0 3.53777,0.769462 25.375404,25.375404 0 0 0 3.61167,0.258382 12.687702,12.687702 0 0 1 -2.47531,-0.243913 12.687702,12.687702 0 0 1 -2.38021,-0.72192 12.687702,12.687702 0 0 1 -2.19367,-1.172538 12.687702,12.687702 0 0 1 -1.92236,-1.577681 12.687702,12.687702 0 0 1 -1.5782,-1.92288 12.687702,12.687702 0 0 1 -1.17254,-2.193665 12.687702,12.687702 0 0 1 -0.72192,-2.380217 12.687702,12.687702 0 0 1 -0.24391,-2.474784 12.687702,12.687702 0 0 1 0.24391,-2.475301 12.687702,12.687702 0 0 1 0.72192,-2.380216 12.687702,12.687702 0 0 1 1.17254,-2.193665 12.687702,12.687702 0 0 1 1.57768,-1.92288 12.687702,12.687702 0 0 1 1.92288,-1.577681 12.687702,12.687702 0 0 1 2.19367,-1.172539 12.687702,12.687702 0 0 1 2.38021,-0.72192 12.687702,12.687702 0 0 1 2.47531,-0.243912 12.687702,12.687702 0 0 0 2.47478,-0.243396 12.687702,12.687702 0 0 0 2.38022,-0.722437 12.687702,12.687702 0 0 0 2.19366,-1.172021 12.687702,12.687702 0 0 0 1.92288,-1.578199 12.687702,12.687702 0 0 0 1.57768,-1.922363 12.687702,12.687702 0 0 0 1.17254,-2.193664 12.687702,12.687702 0 0 0 0.72192,-2.380217 12.687702,12.687702 0 0 0 0.24391,-2.475301 12.687702,12.687702 0 0 0 -0.03,-0.86558 12.687702,12.687702 0 0 0 -0.0884,-0.861963 12.687702,12.687702 0 0 0 -0.14727,-0.853695 12.687702,12.687702 0 0 0 -0.20516,-0.841809 12.687702,12.687702 0 0 0 -0.262,-0.825789 12.687702,12.687702 0 0 0 -0.31781,-0.805636 12.687702,12.687702 0 0 0 -0.37207,-0.782381 12.687702,12.687702 0 0 0 -0.42478,-0.755509 12.687702,12.687702 0 0 0 -0.47491,-0.724504 12.687702,12.687702 0 0 0 -0.52348,-0.68988 12.687702,12.687702 0 0 0 -0.56947,-0.65319 12.687702,12.687702 0 0 0 -0.61237,-0.612883 12.687702,12.687702 0 0 0 -0.65319,-0.568957 12.687702,12.687702 0 0 0 -0.69039,-0.523483 12.687702,12.687702 0 0 0 -0.72451,-0.475423 12.687702,12.687702 0 0 0 -0.75499,-0.424263 12.687702,12.687702 0 0 0 -0.78238,-0.372071 12.687702,12.687702 0 0 0 -0.80564,-0.31781 12.687702,12.687702 0 0 0 -0.82579,-0.262516 12.687702,12.687702 0 0 0 -0.84181,-0.205155 12.687702,12.687702 0 0 0 -0.85369,-0.146762 12.687702,12.687702 0 0 0 -0.86196,-0.08888 12.687702,12.687702 0 0 0 -0.86558,-0.02946 z" />
    <path
       id="path33"
       style="opacity:1;fill:#6f918a;stroke-width:0.750001;stroke-linejoin:round;paint-order:fill markers stroke"
       d="m 424.06539,76.059303 a 12.687702,12.687702 0 0 1 -0.0295,0.86403 12.687702,12.687702 0 0 1 -0.0889,0.86196 12.687702,12.687702 0 0 1 -0.14676,0.85369 12.687702,12.687702 0 0 1 -0.20516,0.84181 12.687702,12.687702 0 0 1 -0.26252,0.82579 12.687702,12.687702 0 0 1 -0.31781,0.80564 12.687702,12.687702 0 0 1 -0.37207,0.78238 12.687702,12.687702 0 0 1 -0.42426,0.75499 12.687702,12.687702 0 0 1 -0.47542,0.72451 12.687702,12.687702 0 0 1 -0.52349,0.69039 12.687702,12.687702 0 0 1 -0.56895,0.65319 12.687702,12.687702 0 0 1 -0.61289,0.61237 12.687702,12.687702 0 0 1 -0.65319,0.56947 12.687702,12.687702 0 0 1 -0.68988,0.52348 12.687702,12.687702 0 0 1 -0.7245,0.47491 12.687702,12.687702 0 0 1 -0.75551,0.42478 12.687702,12.687702 0 0 1 -0.78238,0.37207 12.687702,12.687702 0 0 1 -0.80564,0.31781 12.687702,12.687702 0 0 1 -0.82578,0.262 12.687702,12.687702 0 0 1 -0.84181,0.20516 12.687702,12.687702 0 0 1 -0.8537,0.14727 12.687702,12.687702 0 0 1 -0.86196,0.0884 12.687702,12.687702 0 0 1 -0.86558,0.03 12.687702,12.687702 0 0 1 -2.4753,-0.24391 12.687702,12.687702 0 0 1 -2.38022,-0.72192 12.687702,12.687702 0 0 1 -2.19367,-1.17254 12.687702,12.687702 0 0 1 -1.92236,-1.57768 12.687702,12.687702 0 0 1 -1.5782,-1.92288 12.687702,12.687702 0 0 1 -1.17202,-2.19366 12.687702,12.687702 0 0 1 -0.72244,-2.38022 12.687702,12.687702 0 0 1 -0.2434,-2.47478 12.687702,12.687702 0 0 0 -0.24391,-2.47531 12.687702,12.687702 0 0 0 -0.72192,-2.38021 12.687702,12.687702 0 0 0 -1.17254,-2.19367 12.687702,12.687702 0 0 0 -1.57768,-1.92288 12.687702,12.687702 0 0 0 -1.92288,-1.57768 12.687702,12.687702 0 0 0 -2.19366,-1.17254 12.687702,12.687702 0 0 0 -2.38022,-0.72192 12.687702,12.687702 0 0 0 -2.4753,-0.24391 12.687702,12.687702 0 0 0 -2.47479,0.24391 12.687702,12.687702 0 0 0 -2.38021,0.72192 12.687702,12.687702 0 0 0 -2.19367,1.17254 12.687702,12.687702 0 0 0 -1.92288,1.5782 12.687702,12.687702 0 0 0 -1.57768,1.92236 12.687702,12.687702 0 0 0 -1.17254,2.19367 12.687702,12.687702 0 0 0 -0.72192,2.38021 12.687702,12.687702 0 0 0 -0.24236,2.45774 25.375404,25.375404 0 0 0 -10e-4,0.017 25.375404,25.375404 0 0 0 25.37519,25.375707 25.375404,25.375404 0 0 0 25.37521,-25.373637 z m -0.25683,-3.59875 a 25.375404,25.375404 0 0 0 -0.004,-0.0284 25.375404,25.375404 0 0 1 0.003,0.014 25.375404,25.375404 0 0 1 0.002,0.0145 z m -5.93401,-13.01161 a 25.375404,25.375404 0 0 0 -0.007,-0.009 25.375404,25.375404 0 0 1 0.007,0.009 z m -8.62583,-6.46472 a 25.375404,25.375404 0 0 0 -0.0346,-0.016 25.375404,25.375404 0 0 1 0.0171,0.007 25.375404,25.375404 0 0 1 0.0176,0.009 z m -21.08761,-0.0139 a 25.375404,25.375404 0 0 0 -0.0238,0.0109 25.375404,25.375404 0 0 1 0.0114,-0.006 25.375404,25.375404 0 0 1 0.0124,-0.005 z" />
    <path
       id="path34"
       style="opacity:1;fill:#6f918a;stroke-width:0.750001;stroke-linejoin:round;paint-order:fill markers stroke"
       d="m 474.69796,77.785293 a 25.375404,25.375404 0 0 0 -0.25839,-3.61167 25.375404,25.375404 0 0 0 -0.76946,-3.53777 25.375404,25.375404 0 0 0 -1.26504,-3.39204 25.375404,25.375404 0 0 0 -1.73529,-3.17758 25.375404,25.375404 0 0 0 -2.1699,-2.89853 25.375404,25.375404 0 0 0 -2.56005,-2.56005 25.375404,25.375404 0 0 0 -2.89801,-2.1699 25.375404,25.375404 0 0 0 -3.1781,-1.73478 25.375404,25.375404 0 0 0 -3.39204,-1.26555 25.375404,25.375404 0 0 0 -3.53777,-0.76946 25.375404,25.375404 0 0 0 -3.61115,-0.25839 25.375404,25.375404 0 0 0 -3.61167,0.25839 25.375404,25.375404 0 0 0 -3.53776,0.76946 25.375404,25.375404 0 0 0 -3.39205,1.26555 25.375404,25.375404 0 0 0 -3.17758,1.73478 25.375404,25.375404 0 0 0 -2.89853,2.1699 25.375404,25.375404 0 0 0 -2.56005,2.56005 25.375404,25.375404 0 0 0 -2.16989,2.89853 25.375404,25.375404 0 0 0 -1.73478,3.17758 25.375404,25.375404 0 0 0 -1.26556,3.39204 25.375404,25.375404 0 0 0 -0.76946,3.53777 25.375404,25.375404 0 0 0 -0.25838,3.61167 12.687702,12.687702 0 0 1 0.24391,-2.47531 12.687702,12.687702 0 0 1 0.72192,-2.38021 12.687702,12.687702 0 0 1 1.17254,-2.19367 12.687702,12.687702 0 0 1 1.57768,-1.92236 12.687702,12.687702 0 0 1 1.92288,-1.5782 12.687702,12.687702 0 0 1 2.19366,-1.17254 12.687702,12.687702 0 0 1 2.38022,-0.72192 12.687702,12.687702 0 0 1 2.47479,-0.24391 12.687702,12.687702 0 0 1 2.4753,0.24391 12.687702,12.687702 0 0 1 2.38021,0.72192 12.687702,12.687702 0 0 1 2.19367,1.17254 12.687702,12.687702 0 0 1 1.92288,1.57768 12.687702,12.687702 0 0 1 1.57768,1.92288 12.687702,12.687702 0 0 1 1.17254,2.19367 12.687702,12.687702 0 0 1 0.72192,2.38021 12.687702,12.687702 0 0 1 0.24391,2.47531 12.687702,12.687702 0 0 0 0.2434,2.47478 12.687702,12.687702 0 0 0 0.72243,2.38022 12.687702,12.687702 0 0 0 1.17202,2.19366 12.687702,12.687702 0 0 0 1.5782,1.92288 12.687702,12.687702 0 0 0 1.92237,1.57768 12.687702,12.687702 0 0 0 2.19366,1.17254 12.687702,12.687702 0 0 0 2.38022,0.72192 12.687702,12.687702 0 0 0 2.4753,0.24391 12.687702,12.687702 0 0 0 0.86558,-0.03 12.687702,12.687702 0 0 0 0.86196,-0.0884 12.687702,12.687702 0 0 0 0.8537,-0.14727 12.687702,12.687702 0 0 0 0.8418,-0.20516 12.687702,12.687702 0 0 0 0.82579,-0.262 12.687702,12.687702 0 0 0 0.80564,-0.31781 12.687702,12.687702 0 0 0 0.78238,-0.37207 12.687702,12.687702 0 0 0 0.75551,-0.42478 12.687702,12.687702 0 0 0 0.7245,-0.47491 12.687702,12.687702 0 0 0 0.68988,-0.52348 12.687702,12.687702 0 0 0 0.65319,-0.56947 12.687702,12.687702 0 0 0 0.61289,-0.61237 12.687702,12.687702 0 0 0 0.56895,-0.65319 12.687702,12.687702 0 0 0 0.52349,-0.69039 12.687702,12.687702 0 0 0 0.47542,-0.72451 12.687702,12.687702 0 0 0 0.42426,-0.75499 12.687702,12.687702 0 0 0 0.37207,-0.78238 12.687702,12.687702 0 0 0 0.31781,-0.80564 12.687702,12.687702 0 0 0 0.26252,-0.82579 12.687702,12.687702 0 0 0 0.20515,-0.84181 12.687702,12.687702 0 0 0 0.14677,-0.85369 12.687702,12.687702 0 0 0 0.0889,-0.86196 12.687702,12.687702 0 0 0 0.0295,-0.86558 z" />
    <path
       id="path35"
       style="opacity:1;fill:#00d4aa;stroke-width:0.750001;stroke-linejoin:round;paint-order:fill markers stroke"
       d="m 330.25078,-213.08044 a 12.687702,12.687702 0 0 1 0.86403,0.0295 12.687702,12.687702 0 0 1 0.86196,0.0889 12.687702,12.687702 0 0 1 0.85369,0.14676 12.687702,12.687702 0 0 1 0.84181,0.20516 12.687702,12.687702 0 0 1 0.82579,0.26252 12.687702,12.687702 0 0 1 0.80564,0.31781 12.687702,12.687702 0 0 1 0.78238,0.37207 12.687702,12.687702 0 0 1 0.75499,0.42426 12.687702,12.687702 0 0 1 0.72451,0.47542 12.687702,12.687702 0 0 1 0.69039,0.52349 12.687702,12.687702 0 0 1 0.65319,0.56895 12.687702,12.687702 0 0 1 0.61237,0.61289 12.687702,12.687702 0 0 1 0.56947,0.65319 12.687702,12.687702 0 0 1 0.52348,0.68988 12.687702,12.687702 0 0 1 0.47491,0.7245 12.687702,12.687702 0 0 1 0.42478,0.75551 12.687702,12.687702 0 0 1 0.37207,0.78238 12.687702,12.687702 0 0 1 0.31781,0.80564 12.687702,12.687702 0 0 1 0.262,0.82578 12.687702,12.687702 0 0 1 0.20516,0.84181 12.687702,12.687702 0 0 1 0.14727,0.8537 12.687702,12.687702 0 0 1 0.0884,0.86196 12.687702,12.687702 0 0 1 0.03,0.86558 12.687702,12.687702 0 0 1 -0.24391,2.4753 12.687702,12.687702 0 0 1 -0.72192,2.38022 12.687702,12.687702 0 0 1 -1.17254,2.19367 12.687702,12.687702 0 0 1 -1.57768,1.92236 12.687702,12.687702 0 0 1 -1.92288,1.5782 12.687702,12.687702 0 0 1 -2.19366,1.17202 12.687702,12.687702 0 0 1 -2.38022,0.72244 12.687702,12.687702 0 0 1 -2.47478,0.2434 12.687702,12.687702 0 0 0 -2.47531,0.24391 12.687702,12.687702 0 0 0 -2.38021,0.72192 12.687702,12.687702 0 0 0 -2.19367,1.17254 12.687702,12.687702 0 0 0 -1.92288,1.57768 12.687702,12.687702 0 0 0 -1.57768,1.92288 12.687702,12.687702 0 0 0 -1.17254,2.19366 12.687702,12.687702 0 0 0 -0.72192,2.38022 12.687702,12.687702 0 0 0 -0.24391,2.4753 12.687702,12.687702 0 0 0 0.24391,2.47479 12.687702,12.687702 0 0 0 0.72192,2.38021 12.687702,12.687702 0 0 0 1.17254,2.19367 12.687702,12.687702 0 0 0 1.5782,1.92288 12.687702,12.687702 0 0 0 1.92236,1.57768 12.687702,12.687702 0 0 0 2.19367,1.17254 12.687702,12.687702 0 0 0 2.38021,0.72192 12.687702,12.687702 0 0 0 2.45774,0.24236 25.375404,25.375404 0 0 0 0.017,0.001 25.375404,25.375404 0 0 0 25.37571,-25.37519 25.375404,25.375404 0 0 0 -25.37364,-25.37521 z m -3.59875,0.25683 a 25.375404,25.375404 0 0 0 -0.0284,0.004 25.375404,25.375404 0 0 1 0.014,-0.003 25.375404,25.375404 0 0 1 0.0145,-0.002 z m -13.01161,5.93401 a 25.375404,25.375404 0 0 0 -0.009,0.007 25.375404,25.375404 0 0 1 0.009,-0.007 z m -6.46472,8.62583 a 25.375404,25.375404 0 0 0 -0.016,0.0346 25.375404,25.375404 0 0 1 0.007,-0.017 25.375404,25.375404 0 0 1 0.009,-0.0176 z m -0.0139,21.08761 a 25.375404,25.375404 0 0 0 0.0109,0.0238 25.375404,25.375404 0 0 1 -0.006,-0.0114 25.375404,25.375404 0 0 1 -0.005,-0.0124 z" />
    <path
       id="path36"
       style="opacity:1;fill:#536c5d;stroke-width:0.750001;stroke-linejoin:round;paint-order:fill markers stroke"
       d="m 304.87358,-187.70466 a 25.375404,25.375404 0 0 0 -3.61167,0.25839 25.375404,25.375404 0 0 0 -3.53777,0.76946 25.375404,25.375404 0 0 0 -3.39204,1.26504 25.375404,25.375404 0 0 0 -3.17758,1.73529 25.375404,25.375404 0 0 0 -2.89853,2.1699 25.375404,25.375404 0 0 0 -2.56005,2.56005 25.375404,25.375404 0 0 0 -2.1699,2.89801 25.375404,25.375404 0 0 0 -1.73478,3.1781 25.375404,25.375404 0 0 0 -1.26555,3.39204 25.375404,25.375404 0 0 0 -0.76946,3.53777 25.375404,25.375404 0 0 0 -0.25839,3.61115 25.375404,25.375404 0 0 0 0.25839,3.61167 25.375404,25.375404 0 0 0 0.76946,3.53776 25.375404,25.375404 0 0 0 1.26555,3.39205 25.375404,25.375404 0 0 0 1.73478,3.17758 25.375404,25.375404 0 0 0 2.1699,2.89853 25.375404,25.375404 0 0 0 2.56005,2.56005 25.375404,25.375404 0 0 0 2.89853,2.16989 25.375404,25.375404 0 0 0 3.17758,1.73478 25.375404,25.375404 0 0 0 3.39204,1.26556 25.375404,25.375404 0 0 0 3.53777,0.76946 25.375404,25.375404 0 0 0 3.61167,0.25838 12.687702,12.687702 0 0 1 -2.47531,-0.24391 12.687702,12.687702 0 0 1 -2.38021,-0.72192 12.687702,12.687702 0 0 1 -2.19367,-1.17254 12.687702,12.687702 0 0 1 -1.92236,-1.57768 12.687702,12.687702 0 0 1 -1.5782,-1.92288 12.687702,12.687702 0 0 1 -1.17254,-2.19366 12.687702,12.687702 0 0 1 -0.72192,-2.38022 12.687702,12.687702 0 0 1 -0.24391,-2.47479 12.687702,12.687702 0 0 1 0.24391,-2.4753 12.687702,12.687702 0 0 1 0.72192,-2.38021 12.687702,12.687702 0 0 1 1.17254,-2.19367 12.687702,12.687702 0 0 1 1.57768,-1.92288 12.687702,12.687702 0 0 1 1.92288,-1.57768 12.687702,12.687702 0 0 1 2.19367,-1.17254 12.687702,12.687702 0 0 1 2.38021,-0.72192 12.687702,12.687702 0 0 1 2.47531,-0.24391 12.687702,12.687702 0 0 0 2.47478,-0.2434 12.687702,12.687702 0 0 0 2.38022,-0.72243 12.687702,12.687702 0 0 0 2.19366,-1.17202 12.687702,12.687702 0 0 0 1.92288,-1.5782 12.687702,12.687702 0 0 0 1.57768,-1.92237 12.687702,12.687702 0 0 0 1.17254,-2.19366 12.687702,12.687702 0 0 0 0.72192,-2.38022 12.687702,12.687702 0 0 0 0.24391,-2.4753 12.687702,12.687702 0 0 0 -0.03,-0.86558 12.687702,12.687702 0 0 0 -0.0884,-0.86196 12.687702,12.687702 0 0 0 -0.14727,-0.8537 12.687702,12.687702 0 0 0 -0.20516,-0.8418 12.687702,12.687702 0 0 0 -0.262,-0.82579 12.687702,12.687702 0 0 0 -0.31781,-0.80564 12.687702,12.687702 0 0 0 -0.37207,-0.78238 12.687702,12.687702 0 0 0 -0.42478,-0.75551 12.687702,12.687702 0 0 0 -0.47491,-0.7245 12.687702,12.687702 0 0 0 -0.52348,-0.68988 12.687702,12.687702 0 0 0 -0.56947,-0.65319 12.687702,12.687702 0 0 0 -0.61237,-0.61289 12.687702,12.687702 0 0 0 -0.65319,-0.56895 12.687702,12.687702 0 0 0 -0.69039,-0.52349 12.687702,12.687702 0 0 0 -0.72451,-0.47542 12.687702,12.687702 0 0 0 -0.75499,-0.42426 12.687702,12.687702 0 0 0 -0.78238,-0.37207 12.687702,12.687702 0 0 0 -0.80564,-0.31781 12.687702,12.687702 0 0 0 -0.82579,-0.26252 12.687702,12.687702 0 0 0 -0.84181,-0.20515 12.687702,12.687702 0 0 0 -0.85369,-0.14677 12.687702,12.687702 0 0 0 -0.86196,-0.0889 12.687702,12.687702 0 0 0 -0.86558,-0.0295 z" />
  </g>
</svg>
